<svg xmlns="http://www.w3.org/2000/svg" width="1200" height="675" viewBox="0 0 1200 675">
  <defs>
    <linearGradient id="bg" x1="0" y1="0" x2="1" y2="1">
      <stop offset="0" stop-color="#F7F9FB"/>
      <stop offset="1" stop-color="#FFFFFF"/>
    </linearGradient>
  </defs>
  <rect width="1200" height="675" fill="url(#bg)"/>
  <rect x="60" y="60" width="1080" height="555" rx="26" fill="#ffffff" stroke="#D9E2EC"/>

  <text x="110" y="170" font-family="Inter, Arial, Helvetica, sans-serif" font-size="22" font-weight="700" fill="#2E8B57">FEATURE</text>
  <text x="110" y="235" font-family="Fraunces, Georgia, serif" font-size="54" font-weight="700" fill="#1F4E79">Summer Giving</text>
  <text x="110" y="290" font-family="Inter, Arial, Helvetica, sans-serif" font-size="28" font-weight="600" fill="#0F172A">A calm plan for a predictable dip</text>

  <text x="110" y="350" font-family="Inter, Arial, Helvetica, sans-serif" font-size="22" fill="#334155">Cash flow, recurring giving, and simple communication.</text>

  <rect x="110" y="410" width="980" height="140" rx="18" fill="#F7F9FB" stroke="#D9E2EC"/>
  <path d="M 150 505 C 290 455, 420 450, 520 485 C 640 525, 700 575, 820 575 C 940 575, 1010 535, 1060 505" fill="none" stroke="#2E8B57" stroke-width="10" stroke-linecap="round"/>
  <circle cx="150" cy="505" r="7" fill="#2E8B57"/>
  <circle cx="520" cy="485" r="7" fill="#2E8B57"/>
  <circle cx="820" cy="575" r="7" fill="#2E8B57"/>
  <circle cx="1060" cy="505" r="7" fill="#2E8B57"/>

  <text x="150" y="585" font-family="Inter, Arial, Helvetica, sans-serif" font-size="18" fill="#64748B">Typical pattern: plan early, dip mid-summer, recover in August</text>
</svg>
