<svg xmlns="http://www.w3.org/2000/svg" width="1600" height="900" viewBox="0 0 1600 900">
  <defs>
    <linearGradient id="bg" x1="0" y1="0" x2="1" y2="1">
      <stop offset="0" stop-color="#0F2D3F"/>
      <stop offset="1" stop-color="#102A22"/>
    </linearGradient>
  </defs>
  <rect width="1600" height="900" fill="url(#bg)"/>

  <g transform="translate(180,160)">
    <rect width="1240" height="580" rx="30" fill="#FFFFFF" opacity="0.94"/>
    <rect width="1240" height="580" rx="30" fill="none" stroke="#0F172A" opacity="0.10"/>

    <text x="70" y="125" font-family="Inter, system-ui" font-size="28" fill="#2F6B5B" font-weight="700">Healthy Major-Gift Conversations</text>
    <text x="70" y="200" font-family="Fraunces, Georgia" font-size="64" fill="#0F2D3F" font-weight="700">Invite Big Gifts</text>
    <text x="70" y="258" font-family="Inter, system-ui" font-size="26" fill="#475569">Without pressure, weirdness, or manipulation.</text>

    <!-- simple visual: posture / clarity / follow-up -->
    <g transform="translate(70,320)">
      <rect width="1100" height="200" rx="26" fill="#0F2D3F" opacity="0.06"/>
      <g transform="translate(40,40)">
        <circle cx="40" cy="40" r="40" fill="#F4B740" opacity="0.20"/>
        <path d="M40 26c10 0 18 8 18 18s-8 18-18 18-18-8-18-18 8-18 18-18Z" fill="#0F2D3F" opacity="0.85"/>
        <text x="100" y="38" font-family="Inter, system-ui" font-size="22" fill="#0F2D3F" font-weight="750">Posture</text>
        <text x="100" y="70" font-family="Inter, system-ui" font-size="18" fill="#475569">Curious, grateful, non-anxious.</text>
      </g>
      <g transform="translate(420,40)">
        <circle cx="40" cy="40" r="40" fill="#2F6B5B" opacity="0.16"/>
        <path d="M24 64l20-28 14 14 22-30" fill="none" stroke="#2F6B5B" stroke-width="6" stroke-linecap="round" stroke-linejoin="round"/>
        <text x="100" y="38" font-family="Inter, system-ui" font-size="22" fill="#0F2D3F" font-weight="750">Clarity</text>
        <text x="100" y="70" font-family="Inter, system-ui" font-size="18" fill="#475569">Specific ask, specific impact.</text>
      </g>
      <g transform="translate(780,40)">
        <circle cx="40" cy="40" r="40" fill="#0F2D3F" opacity="0.12"/>
        <path d="M24 40h32" stroke="#0F2D3F" stroke-width="6" stroke-linecap="round"/>
        <path d="M40 24v32" stroke="#0F2D3F" stroke-width="6" stroke-linecap="round"/>
        <text x="100" y="38" font-family="Inter, system-ui" font-size="22" fill="#0F2D3F" font-weight="750">Follow-up</text>
        <text x="100" y="70" font-family="Inter, system-ui" font-size="18" fill="#475569">Timely, simple, no guilt.</text>
      </g>
    </g>

    <g transform="translate(70,550)">
      <rect width="1100" height="70" rx="22" fill="#F7F8FA"/>
      <text x="26" y="44" font-family="Inter, system-ui" font-size="18" fill="#475569">Phrase to borrow: “Would you be open to exploring a lead gift that fits your passion and capacity?”</text>
    </g>

  </g>
</svg>
